<svg version="1.1" id="Layer_1" xmlns="http://www.w3.org/2000/svg" xmlns:xlink="http://www.w3.org/1999/xlink" x="0px" y="0px" viewBox="0 0 500 500" style="width: 169px;" xml:space="preserve" data-imageid="order-confirmed-94" imageName="Order Confirmed" class="illustrations_image">
<style type="text/css">
	.st0_order-confirmed-94{fill:#FFFFFF;}
	.st1_order-confirmed-94{fill:#231F20;}
	.st2_order-confirmed-94{fill:#68E1FD;}
	.st3_order-confirmed-94{fill:none;}
	.st4_order-confirmed-94{fill:#D1D3D4;}
</style>
<g id="Character_order-confirmed-94">
	<path class="st0_order-confirmed-94" d="M163.8,249.2l9.1,42l34.4-39.1l14,12.4c0,0-48.7,72.4-68.1,67.7S139,300,134.9,270.5S163.8,249.2,163.8,249.2z&#10;&#9;&#9;"/>
	<path class="st1_order-confirmed-94" d="M155,333.1c-0.7,0-1.3-0.1-2-0.2c-14.8-3.6-15.7-19.6-16.9-39.9c-0.4-7.2-0.8-14.7-1.9-22.5&#10;&#9;&#9;c-1.2-8.3,0.5-14.5,4.8-18.4c8.5-7.6,24.3-3.8,24.9-3.6c0.3,0.1,0.5,0.3,0.5,0.5l8.9,40.6l33.4-38c0.2-0.3,0.7-0.3,1-0.1&#10;&#9;&#9;c0,0,0,0,0,0l14,12.4c0.3,0.2,0.3,0.6,0.1,0.9C219.9,267.8,175.7,333.1,155,333.1z M154.2,248.9c-4.8,0-10.4,0.9-14.3,4.4&#10;&#9;&#9;s-5.4,9.3-4.4,17.2s1.5,15.3,1.9,22.6c1.1,19.7,2,35.2,15.8,38.6c7.6,1.9,21.7-9.1,40.6-31.8c13.1-15.7,24.3-32,26.4-35.1l-13-11.5&#10;&#9;&#9;l-33.9,38.5c-0.2,0.2-0.4,0.3-0.7,0.2c-0.3-0.1-0.5-0.3-0.5-0.5l-9.1-41.6C160.2,249.2,157.2,248.9,154.2,248.9L154.2,248.9z"/>
	<path class="st1_order-confirmed-94" d="M51.6,373.2c-2.8,18.9-2.4,24.1-2.4,24.1l116.1-2.3l-15.3-66.4l-89,9.5C56.7,349.5,53.5,361.2,51.6,373.2z"/>
	<path class="st1_order-confirmed-94" d="M49.3,398c-0.4,0-0.7-0.3-0.7-0.6c0-0.2-0.5-5.5,2.4-24.3l0,0c1.9-12,5.1-23.8,9.5-35.2&#10;&#9;&#9;c0.1-0.2,0.3-0.4,0.6-0.4l89-9.5c0.4,0,0.7,0.2,0.8,0.5l15.2,66.3c0,0.2,0,0.4-0.1,0.6c-0.1,0.2-0.3,0.3-0.5,0.3L49.3,398L49.3,398&#10;&#9;&#9;z M52.3,373.3c-2.2,15-2.4,21.4-2.4,23.3l114.5-2.3l-14.9-64.9l-88,9.4C57.3,349.9,54.2,361.5,52.3,373.3L52.3,373.3z"/>
	<path class="st2_order-confirmed-94 targetColor" d="M50.4,366.1l108.8-12.2c-10.1-64.7-15.3-30.5-3-91l12.9-3.5c-6-31.3-20.7-45-20.7-45&#10;&#9;&#9;C134,188.5,99,203.6,99,203.6s-40.2,3.2-50.6,37.9c-6.9,23,4.9,55.1,6.4,83C55.2,332.5,52.5,332.1,50.4,366.1z" style="fill: rgb(104, 225, 253);"/>
	<path class="st0_order-confirmed-94" d="M129,220.2c-4-0.6-7.9-1.3-12.1-0.2c-6.2,1.7-11.7,5.3-18.1,6.8c-6.8,1.6-14.3,1.6-21.3,2&#10;&#9;&#9;c-2,0.1,0.2,2.7-1.6,1.6c-6.2-3.7-6.7-12.1-7.3-18.4c-1.3-14.5-1.3-29.4,1.4-43.8c2.4-12.6,4.8-24.6,17-31c8.9-4.7,21.4-7.5,31.2-4&#10;&#9;&#9;c9.9,3.5,17.9,12.4,21.3,22.2c3.8,10.9,5,22,11.3,32c2.8,4.4,6.3,8.7,6.9,13.9c0.8,6.2-2.9,12.5-8.2,15.9s-11.9,4.1-18.2,3.4&#10;&#9;&#9;C130.6,220.5,129.8,220.4,129,220.2z"/>
	<path class="st1_order-confirmed-94" d="M76.5,231.4c-0.4,0-0.7-0.1-1-0.4c-6.3-3.7-7-11.8-7.5-18.2l-0.1-0.8c-1.5-16.6-1-30.9,1.4-44&#10;&#9;&#9;c2.3-12.2,4.6-24.8,17.4-31.5c8-4.2,21.2-7.8,31.8-4.1c9.8,3.5,18.1,12.2,21.7,22.7c1.2,3.6,2.2,7.2,3.1,10.7&#10;&#9;&#9;c2,7.5,3.9,14.5,8.1,21.2c0.5,0.8,1,1.6,1.6,2.4c2.4,3.6,4.9,7.4,5.5,11.8c0.8,6.2-2.6,12.8-8.5,16.5c-6.3,4-13.6,4.1-18.6,3.5&#10;&#9;&#9;c-0.8-0.1-1.7-0.2-2.5-0.4l-0.6-0.1c-3.8-0.6-7.4-1.1-11.2-0.1c-2.9,0.9-5.7,1.9-8.4,3.2c-3.1,1.5-6.4,2.7-9.7,3.6&#10;&#9;&#9;c-5.8,1.4-12.1,1.6-18.1,1.8l-3.3,0.1c-0.1,0-0.2,0-0.3,0.1c0,0.2,0,0.3,0,0.5c0.1,0.4,0,0.9-0.3,1.2&#10;&#9;&#9;C76.7,231.3,76.6,231.4,76.5,231.4z M108.6,132.4c-7.4,0.2-14.7,2-21.2,5.5c-12.2,6.4-14.4,18.6-16.7,30.5&#10;&#9;&#9;c-2.4,12.9-2.9,27.1-1.4,43.6l0.1,0.8c0.5,6,1.2,13.4,6.4,16.9c0-0.3,0.1-0.7,0.3-0.9c0.3-0.4,0.8-0.6,1.3-0.6l3.3-0.1&#10;&#9;&#9;c6-0.2,12.1-0.5,17.8-1.8c3.3-0.9,6.4-2,9.5-3.5c2.8-1.3,5.6-2.4,8.6-3.3c4.1-1.1,7.8-0.5,11.8,0.1l0.6,0.1l0,0l2.5,0.4&#10;&#9;&#9;c4.8,0.6,11.8,0.5,17.7-3.3c5.4-3.4,8.6-9.5,7.9-15.2c-0.5-4.1-2.9-7.7-5.2-11.2c-0.5-0.8-1.1-1.6-1.6-2.4&#10;&#9;&#9;c-4.3-6.9-6.3-14.3-8.3-21.6c-0.9-3.5-1.9-7.1-3.1-10.6c-3.5-10.1-11.5-18.5-20.9-21.8C115,132.9,111.8,132.3,108.6,132.4z"/>
	<path class="st0_order-confirmed-94" d="M133.7,162.1c0,0,7.2,16.8,5.1,30c-1,7.5-6.4,13.7-13.7,15.8l1.5,23.1c0,0,0.9,11.8-13.7,10.9&#10;&#9;&#9;c-8.6-0.6-16.2-5.5-20.3-13.1l-4.3-42.3c0,0,15.8-10.5,13.4-25.6C101.5,160.8,121.6,169,133.7,162.1z"/>
	<path class="st1_order-confirmed-94" d="M114.3,242.5c-0.5,0-1,0-1.6-0.1c-14.8-0.9-20.8-13.3-20.9-13.5c0-0.1-0.1-0.1-0.1-0.2l-4.3-42.3&#10;&#9;&#9;c0-0.3,0.1-0.5,0.3-0.7c0.2-0.1,15.4-10.4,13.1-24.9c0-0.3,0.1-0.5,0.3-0.7c0.2-0.2,0.5-0.2,0.7-0.1c0.2,0.1,19.9,8,31.5,1.3&#10;&#9;&#9;c0.2-0.1,0.4-0.1,0.6-0.1c0.2,0.1,0.3,0.2,0.4,0.4c0.3,0.7,7.3,17.1,5.1,30.4c-1.1,7.6-6.4,13.9-13.7,16.2l1.4,22.5&#10;&#9;&#9;c0.1,3.1-1,6-3.1,8.3C121.9,241.4,118.6,242.5,114.3,242.5z M93.1,228.5c4,7.3,11.4,12,19.7,12.6c4.6,0.3,8.1-0.7,10.3-2.9&#10;&#9;&#9;c1.8-2,2.8-4.5,2.7-7.2l-1.5-23.1c0-0.3,0.2-0.7,0.6-0.7c7.1-2,12.2-8,13.2-15.2c1.9-11.3-3.4-25.5-4.7-28.9&#10;&#9;&#9;c-10.8,5.6-26.6,0.4-31-1.2c1.3,13.5-11.2,23.2-13.5,24.9L93.1,228.5z"/>
	<path class="st1_order-confirmed-94" d="M125.9,193.3c-1.2,0-2.4-0.1-3.5-0.3c-0.4-0.1-0.6-0.5-0.5-0.9c0.1-0.3,0.4-0.6,0.8-0.5c0.1,0,4.7,0.9,6.9-0.4&#10;&#9;&#9;c0.3-1.8-4.1-7.9-7.3-11.6c-0.3-0.3-0.2-0.7,0.1-1c0.3-0.3,0.7-0.2,1,0.1c0,0,0,0,0,0c1.4,1.6,8.1,9.7,7.7,12.6&#10;&#9;&#9;c-0.1,0.5-0.3,0.9-0.7,1.1C128.9,193,127.4,193.4,125.9,193.3z"/>
	<path class="st1_order-confirmed-94" d="M120.8,200.8c-0.8,0-1.7-0.1-2.5-0.2c-5.7-1-9.6-5-10.1-5.9c-0.2-0.3-0.1-0.8,0.3-0.9c0,0,0,0,0,0&#10;&#9;&#9;c0.3-0.2,0.8,0,0.9,0.3c2.4,2.7,5.6,4.6,9.2,5.2c4.7,0.8,9.4-1,14-5.2c0.3-0.2,0.8-0.1,1,0.2c0.2,0.2,0.2,0.6,0,0.8&#10;&#9;&#9;C129.4,198.9,125.1,200.8,120.8,200.8z"/>
	<path class="st1_order-confirmed-94" d="M125,207.8c0,0-12.2,2.3-19.4,1c0,0,8.9,17.7,20.6,16.8L125,207.8z"/>
	<path class="st1_order-confirmed-94" d="M125.4,226.4c-11.6,0-20-16.5-20.4-17.2c-0.1-0.2-0.1-0.5,0.1-0.7c0.2-0.2,0.4-0.3,0.7-0.3c7,1.3,19-1,19.1-1&#10;&#9;&#9;c0.4-0.1,0.8,0.2,0.8,0.6c0,0,0,0,0,0.1l1.2,17.8c0,0.4-0.3,0.7-0.6,0.7c0,0,0,0,0,0L125.4,226.4z M106.9,209.7&#10;&#9;&#9;c2.2,3.8,9.5,15.2,18.5,15.2h0.1l-1.1-16.3C121.7,209.1,113.1,210.4,106.9,209.7z"/>
	<polygon class="st1_order-confirmed-94" points="195.6,208.6 226,207.1 210.8,271.5 178.1,274.7 &#9;"/>
	<path class="st1_order-confirmed-94" d="M178.1,275.4c-0.2,0-0.4-0.1-0.5-0.2c-0.1-0.2-0.2-0.4-0.1-0.6l17.5-66c0.1-0.3,0.3-0.5,0.6-0.5l30.3-1.5&#10;&#9;&#9;c0.2,0,0.4,0.1,0.6,0.2c0.1,0.2,0.2,0.4,0.1,0.6l-15.2,64.3c-0.1,0.3-0.3,0.5-0.6,0.5L178.1,275.4L178.1,275.4z M196.1,209.3&#10;&#9;&#9;L179,273.9l31.1-3.1l14.9-62.9L196.1,209.3z"/>
	<path class="st1_order-confirmed-94" d="M156.2,263.6c-0.4,0-0.7-0.3-0.7-0.6c-0.6-9.3-2.7-18.4-6.1-27c-0.1-0.4,0.1-0.8,0.4-0.9&#10;&#9;&#9;c0.3-0.1,0.7,0,0.8,0.3c3.5,8.8,5.6,18.1,6.2,27.5C156.9,263.2,156.6,263.6,156.2,263.6C156.3,263.6,156.3,263.6,156.2,263.6&#10;&#9;&#9;L156.2,263.6z"/>
	<path class="st1_order-confirmed-94" d="M108.6,178.5c-0.1,0-0.1,0-0.2,0c-0.4-0.1-0.6-0.5-0.5-0.9c0,0,0,0,0,0c0.6-1.8,1.8-3.3,3.5-4.1&#10;&#9;&#9;c1.7-0.7,3.6-0.5,5.2,0.4c0.4,0.2,0.5,0.6,0.3,0.9s-0.6,0.5-0.9,0.3c0,0,0,0,0,0c-1.2-0.7-2.7-0.8-4-0.4c-1.3,0.7-2.3,1.9-2.7,3.3&#10;&#9;&#9;C109.2,178.3,108.9,178.5,108.6,178.5z"/>
	<path class="st1_order-confirmed-94" d="M128,174.3h-0.1c-0.4-0.1-0.6-0.4-0.6-0.8c0.2-1.2,1-2.2,2-2.7c1.2-0.5,2.7-0.1,4.5,1.1c0.3,0.2,0.4,0.7,0.2,1&#10;&#9;&#9;c0,0,0,0,0,0c-0.2,0.3-0.7,0.4-1,0.2c0,0,0,0,0,0c-1.3-0.9-2.4-1.3-3.1-1c-0.6,0.4-1.1,1-1.2,1.7&#10;&#9;&#9;C128.6,174.1,128.3,174.3,128,174.3z"/>
	<path class="st0_order-confirmed-94" d="M67.8,190.4c0,0,1.7,5.1-3.7,20s-5.2,26.2,8.4,28.3s21.5,0.4,23.3-11.1S87.2,203,87.2,203"/>
	<path class="st1_order-confirmed-94" d="M81,240c-2.9,0-5.7-0.3-8.6-0.8c-5-0.8-8.5-2.8-10.5-6.1c-2.9-4.9-2.4-12.4,1.5-23.1&#10;&#9;&#9;c5.2-14.3,3.7-19.4,3.7-19.5c-0.1-0.4,0.1-0.7,0.4-0.9c0,0,0,0,0,0c0.4-0.1,0.8,0.1,0.9,0.4c0,0,0,0,0,0c0.1,0.2,1.7,5.5-3.7,20.4&#10;&#9;&#9;c-3.8,10.3-4.3,17.4-1.6,21.9c1.8,2.9,4.8,4.7,9.5,5.4c12.9,1.9,20.8,0.8,22.5-10.6c1.7-11.1-8.4-23.7-8.5-23.8&#10;&#9;&#9;c-0.2-0.3-0.2-0.7,0.1-1c0.3-0.2,0.7-0.2,1,0.1c0.4,0.5,10.6,13.2,8.8,24.9C95.1,237,89.4,240,81,240z"/>
	<path class="st0_order-confirmed-94" d="M214.1,274.7c11.2-15.9,11.2-15.9,10.6-21.4c-0.5-4.2-2.6-7.9-4.8-11.4c-2.8-4.4-8.9-11.1-11.2-2.2&#10;&#9;&#9;c-1.1,4.3-2.9,9.7-1.7,14.1c1.1,4.1,4.2,7.5,5.9,11.4"/>
	<path class="st1_order-confirmed-94" d="M214.1,275.4c-0.1,0-0.3,0-0.4-0.1c-0.3-0.2-0.4-0.6-0.2-1c0,0,0,0,0,0c11.1-15.7,11.1-15.7,10.4-20.9&#10;&#9;&#9;c-0.5-4.2-2.7-7.9-4.7-11.1c-2.1-3.3-5.2-6.6-7.3-6.2c-1.4,0.2-2.3,2.2-2.7,3.9l-0.4,1.5c-1.1,4-2.3,8.5-1.3,12.2&#10;&#9;&#9;c0.8,2.4,1.9,4.6,3.3,6.6c1,1.5,1.8,3,2.6,4.6c0.2,0.4,0,0.8-0.4,0.9c-0.4,0.2-0.8,0-0.9-0.4l0,0c-0.7-1.5-1.6-3-2.5-4.5&#10;&#9;&#9;c-1.5-2.2-2.6-4.5-3.4-7c-1.1-4.1,0.1-8.8,1.3-13l0.4-1.5c0.8-3,2.1-4.6,3.8-4.9c3.6-0.6,7.6,5.1,8.7,6.9c2.1,3.3,4.4,7.2,4.9,11.6&#10;&#9;&#9;c0.7,5.7,0.7,5.7-10.7,21.8C214.6,275.2,214.3,275.4,214.1,275.4z"/>
	<path class="st0_order-confirmed-94" d="M76.6,296.2c0,0,50.3,46.4,64.6,41.1s31.1-27.5,40.9-42.9s22.6-36.8,24.5-46.3s-1.1-16.6-4.6-14.8&#10;&#9;&#9;s-16.9,14.8-16.9,14.8s4.5-12.8,2.4-12.8s-8.3,5.6-10.4,23.7l-42.7,43.4l-35.1-34.1"/>
	<path class="st1_order-confirmed-94" d="M138.7,338.4c-17.2,0-60.6-39.9-62.6-41.7c-0.3-0.3-0.3-0.7,0-1c0,0,0,0,0,0c0.3-0.3,0.7-0.3,1,0&#10;&#9;&#9;c0.1,0.1,12.7,11.7,26.9,22.5c18.6,14.2,31.4,20.6,37,18.5c16.3-6,35.2-34.1,40.6-42.6c10.1-15.9,22.6-36.7,24.4-46&#10;&#9;&#9;c1.3-6.8,0.1-12.4-1.9-13.9c-0.5-0.4-1.2-0.5-1.8-0.2c-3.4,1.7-16.6,14.6-16.7,14.7c-0.3,0.3-0.7,0.3-1,0c-0.2-0.2-0.3-0.5-0.2-0.7&#10;&#9;&#9;c1.7-4.9,3.2-10.6,2.9-11.9c-1.4,0.3-7.4,4.8-9.5,23.1c0,0.2-0.1,0.3-0.2,0.4L135,303c-0.3,0.3-0.7,0.3-1,0l-35-34.1&#10;&#9;&#9;c-0.3-0.3-0.3-0.7,0-1c0,0,0,0,0,0c0.3-0.3,0.7-0.3,1,0l34.6,33.6l42-42.7c2.1-18.1,8.4-24.1,11-24.1h0.1c0.4,0,0.7,0.2,0.9,0.5&#10;&#9;&#9;c0.9,1.4-0.5,6.6-1.7,10.5c3.9-3.8,12.2-11.6,15-13c1-0.5,2.3-0.4,3.2,0.4c2.7,2.1,3.7,8.5,2.4,15.3c-1.9,9.5-14.4,30.5-24.6,46.5&#10;&#9;&#9;c-7,11-25.1,37.2-41.3,43.2C140.6,338.3,139.6,338.5,138.7,338.4z"/>
	<path class="st1_order-confirmed-94" d="M111.5,187.9c-5.4,0-9.7-4.4-9.7-9.8s4.4-9.7,9.8-9.7c4.6,0,8.6,3.3,9.5,7.8l0,0c1.1,5.3-2.3,10.4-7.6,11.5&#10;&#9;&#9;C112.8,187.8,112.2,187.9,111.5,187.9z M111.5,169.8c-0.6,0-1.1,0.1-1.7,0.2c-4.5,0.9-7.4,5.3-6.5,9.8c0.9,4.5,5.3,7.4,9.8,6.5&#10;&#9;&#9;c4.5-0.9,7.4-5.3,6.5-9.8c0,0,0,0,0,0l0,0C118.9,172.6,115.5,169.8,111.5,169.8L111.5,169.8z"/>
	<path class="st1_order-confirmed-94" d="M132.2,183.7c-4.6,0-8.6-3.3-9.5-7.8c-1.2-5.2,2-10.5,7.2-11.7c5.2-1.2,10.5,2,11.7,7.2c0,0.2,0.1,0.4,0.1,0.6&#10;&#9;&#9;l0,0c1.1,5.3-2.3,10.4-7.6,11.5C133.5,183.6,132.8,183.7,132.2,183.7z M132.2,165.6c-0.6,0-1.1,0.1-1.7,0.2&#10;&#9;&#9;c-4.5,0.9-7.4,5.3-6.5,9.8c0.9,4.5,5.3,7.4,9.8,6.5c4.5-0.9,7.4-5.3,6.5-9.8c0,0,0,0,0,0l0,0C139.5,168.4,136.1,165.6,132.2,165.6&#10;&#9;&#9;L132.2,165.6z"/>
	<path class="st1_order-confirmed-94" d="M120.2,176.2c-0.1,0-0.3,0-0.4-0.1c-0.3-0.2-0.5-0.6-0.3-1c0,0,0,0,0,0c0.8-1.3,2.6-1.7,3.9-0.9c0,0,0,0,0,0&#10;&#9;&#9;c0.3,0.2,0.5,0.6,0.3,0.9c-0.2,0.3-0.6,0.5-0.9,0.3l0,0c-1.4-0.7-2,0.2-2,0.4C120.8,176.1,120.5,176.2,120.2,176.2z"/>
	<line class="st3_order-confirmed-94" x1="102.3" y1="178.2" x2="85.5" y2="180.2"/>
	<path class="st1_order-confirmed-94" d="M85.5,180.9c-0.4,0-0.7-0.3-0.7-0.7c0-0.4,0.3-0.7,0.7-0.7l16.8-2c0.4-0.1,0.8,0.1,0.8,0.5&#10;&#9;&#9;c0.1,0.4-0.1,0.8-0.5,0.8c-0.1,0-0.1,0-0.2,0L85.5,180.9L85.5,180.9z"/>
	<path class="st1_order-confirmed-94" d="M86.8,186.3c0,0-5.8-19.4,1.9-32.6c6.4-11,23.1-18.5,35.5-18.9c0,0-8.8-8.2-21.6-2.7S83,144.1,80.4,155.5&#10;&#9;&#9;C76.8,172.1,86.8,186.3,86.8,186.3z"/>
	<path class="st1_order-confirmed-94" d="M86.8,187c-0.2,0-0.4-0.1-0.6-0.3c-0.1-0.1-10.1-14.6-6.4-31.3c2.4-11.2,8.8-17.9,22.6-23.9&#10;&#9;&#9;c7.4-3.4,16.1-2.4,22.3,2.8c0.2,0.2,0.3,0.5,0.2,0.8c-0.1,0.3-0.4,0.4-0.6,0.4c-11.8,0.4-28.5,7.6-34.9,18.6&#10;&#9;&#9;c-7.4,12.8-1.9,31.9-1.9,32c0.1,0.3-0.1,0.7-0.4,0.8C87,186.9,86.9,187,86.8,187z M111.5,130.9c-3,0-5.9,0.7-8.6,1.9&#10;&#9;&#9;c-13.3,5.8-19.4,12.2-21.7,22.9c-2.4,10.9,1.2,20.8,3.9,26.1c-1.2-6.6-2.4-19,3.1-28.4c6.3-10.8,22.2-18.1,34.2-19.2&#10;&#9;&#9;C119.1,132,115.3,130.9,111.5,130.9L111.5,130.9z"/>
	<path class="st0_order-confirmed-94" d="M95.9,182.9c0,0-8.2-15.6-15.5-4.9s5,20.9,12.1,19.5"/>
	<path class="st1_order-confirmed-94" d="M91.1,198.3c-4,0-8.9-2.8-11.6-6.9c-2.9-4.2-2.8-9.8,0.3-13.8c1.9-2.8,4.1-4.1,6.6-4c5.6,0.4,10,8.7,10.2,9&#10;&#9;&#9;c0.2,0.3,0,0.8-0.3,0.9c-0.3,0.2-0.8,0-0.9-0.3l0,0c0-0.1-4.2-8-9-8.3c-1.9-0.1-3.7,1-5.3,3.4c-2.7,3.6-2.9,8.5-0.3,12.2&#10;&#9;&#9;c2.7,4.2,7.9,6.9,11.6,6.2c0.4,0,0.7,0.2,0.8,0.6c0,0.3-0.2,0.7-0.5,0.8C92.1,198.2,91.6,198.3,91.1,198.3z"/>
	<path class="st1_order-confirmed-94" d="M96.1,266c-0.2,0-0.4-0.1-0.5-0.2c-0.2-0.2-17.3-18.8-29.1-23.3c-0.4-0.1-0.6-0.5-0.5-0.9s0.5-0.6,0.9-0.5&#10;&#9;&#9;c0,0,0.1,0,0.1,0.1c12.1,4.6,29,22.9,29.7,23.7c0.3,0.3,0.2,0.7,0,1C96.4,265.9,96.2,266,96.1,266z"/>
</g>
<g id="notification_order-confirmed-94">
	<path class="st0_order-confirmed-94" d="M444.2,102.7H247.1c-4.9,0-8.8,3.9-8.8,8.8v0v60l-22.4,27.4l22.4-8v168.8c0,4.9,3.9,8.8,8.8,8.8h197.2&#10;&#9;&#9;c4.9,0,8.8-3.9,8.8-8.8V111.5C453,106.6,449.1,102.7,444.2,102.7z"/>
	<path class="st1_order-confirmed-94" d="M444.2,369.2H247.1c-5.2,0-9.5-4.3-9.5-9.5V191.9l-21.5,7.6c-0.3,0.1-0.6,0-0.8-0.3c-0.2-0.2-0.2-0.6,0-0.8&#10;&#9;&#9;l22.2-27.3v-59.7c0-5.2,4.3-9.5,9.5-9.5h197.2c5.2,0,9.5,4.3,9.5,9.5v248.3C453.7,365,449.5,369.2,444.2,369.2z M238.2,190.2&#10;&#9;&#9;c0.1,0,0.3,0,0.4,0.1c0.2,0.1,0.3,0.3,0.3,0.6v168.8c0,4.5,3.6,8.1,8.1,8.1h197.2c4.5,0,8.1-3.6,8.1-8.1V111.5&#10;&#9;&#9;c0-4.5-3.6-8.1-8.1-8.1l0,0H247.1c-4.5,0-8.1,3.6-8.1,8.1v60c0,0.2-0.1,0.3-0.2,0.4L218,197.4l20-7.1&#10;&#9;&#9;C238.1,190.2,238.2,190.2,238.2,190.2L238.2,190.2z"/>
	<path class="st2_order-confirmed-94 targetColor" d="M301.4,302.5h92.5c6.8,0,12.4,5.5,12.4,12.4v5.9c0,6.8-5.5,12.4-12.4,12.4h-92.5c-6.8,0-12.4-5.5-12.4-12.4&#10;&#9;&#9;v-5.9C289,308,294.5,302.5,301.4,302.5z" style="fill: rgb(104, 225, 253);"/>
	<path class="st1_order-confirmed-94" d="M296.9,253.7l-4.9-7.3h2.8l3.2,5.4l3.3-5.4h2.7l-4.9,7.3v5.6h-2.3L296.9,253.7z"/>
	<path class="st1_order-confirmed-94" d="M302.8,254.9c0-0.6,0.1-1.3,0.4-1.9c0.2-0.5,0.6-1,1-1.4c0.4-0.4,0.9-0.7,1.5-0.9c0.6-0.2,1.2-0.3,1.9-0.3&#10;&#9;&#9;c0.6,0,1.3,0.1,1.9,0.3c0.6,0.2,1.1,0.5,1.5,0.9c0.4,0.4,0.8,0.9,1,1.4c0.3,0.6,0.4,1.2,0.4,1.9c0,0.6-0.1,1.3-0.4,1.9&#10;&#9;&#9;c-0.2,0.6-0.6,1.1-1,1.5c-0.4,0.4-1,0.8-1.5,1c-0.6,0.2-1.2,0.4-1.9,0.4c-0.6,0-1.3-0.1-1.9-0.4c-0.6-0.2-1.1-0.6-1.5-1&#10;&#9;&#9;c-0.4-0.4-0.8-0.9-1-1.5C302.9,256.2,302.8,255.5,302.8,254.9z M305,254.9c0,0.3,0.1,0.7,0.1,1c0.1,0.3,0.3,0.6,0.5,0.9&#10;&#9;&#9;c0.4,0.6,1.2,0.9,1.9,0.9c0.4,0,0.8-0.1,1.1-0.2c0.3-0.2,0.6-0.4,0.8-0.7c0.2-0.3,0.4-0.6,0.5-0.9c0.2-0.7,0.2-1.3,0-2&#10;&#9;&#9;c-0.1-0.3-0.3-0.6-0.5-0.9c-0.2-0.3-0.5-0.5-0.8-0.6c-0.4-0.2-0.7-0.3-1.1-0.2c-0.4,0-0.8,0.1-1.1,0.2c-0.3,0.2-0.6,0.4-0.8,0.6&#10;&#9;&#9;c-0.2,0.3-0.4,0.6-0.5,0.9C305.1,254.2,305,254.6,305,254.9L305,254.9z"/>
	<path class="st1_order-confirmed-94" d="M322.4,259.3h-2.1v-1.4l0,0c-0.5,1-1.6,1.7-2.7,1.7c-0.5,0-1-0.1-1.5-0.3c-0.4-0.2-0.7-0.5-1-0.8&#10;&#9;&#9;c-0.3-0.3-0.5-0.7-0.6-1.1c-0.1-0.4-0.2-0.9-0.2-1.3v-5.5h2.2v4.9c0,0.3,0,0.5,0,0.8c0,0.3,0.1,0.5,0.2,0.8&#10;&#9;&#9;c0.1,0.2,0.3,0.4,0.5,0.5c0.3,0.2,0.6,0.2,0.9,0.2c0.6,0,1.2-0.3,1.5-0.8c0.2-0.2,0.3-0.5,0.4-0.8c0.1-0.3,0.1-0.6,0.1-0.9v-4.8&#10;&#9;&#9;h2.2L322.4,259.3z"/>
	<path class="st1_order-confirmed-94" d="M325,250.6h2.1v1.4l0,0c0.2-0.5,0.6-0.9,1-1.2c0.5-0.3,1-0.5,1.5-0.5h0.4c0.1,0,0.2,0,0.3,0v2&#10;&#9;&#9;c-0.1,0-0.3-0.1-0.4-0.1h-0.3c-0.4,0-0.8,0.1-1.2,0.3c-0.3,0.2-0.5,0.4-0.7,0.7c-0.2,0.2-0.3,0.5-0.4,0.8c-0.1,0.2-0.1,0.4-0.1,0.6&#10;&#9;&#9;v4.7H325V250.6z"/>
	<path class="st1_order-confirmed-94" d="M335.7,252.8c0-1,0.2-1.9,0.5-2.8c0.3-0.8,0.8-1.5,1.4-2.1c0.6-0.6,1.4-1.1,2.2-1.4c0.9-0.3,1.8-0.5,2.8-0.5&#10;&#9;&#9;c1,0,1.9,0.2,2.8,0.5c0.8,0.3,1.6,0.8,2.2,1.4c0.6,0.6,1.1,1.3,1.5,2.1c0.4,0.9,0.5,1.8,0.5,2.8c0,0.9-0.2,1.9-0.5,2.8&#10;&#9;&#9;c-0.3,0.8-0.8,1.5-1.5,2.2c-0.6,0.6-1.4,1.1-2.2,1.4c-0.9,0.3-1.8,0.5-2.8,0.5c-0.9,0-1.9-0.2-2.8-0.5c-0.8-0.3-1.6-0.8-2.2-1.4&#10;&#9;&#9;c-0.6-0.6-1.1-1.3-1.4-2.1C335.9,254.7,335.7,253.8,335.7,252.8z M338.2,252.8c0,0.6,0.1,1.3,0.3,1.9c0.2,0.6,0.5,1.1,0.9,1.5&#10;&#9;&#9;c0.4,0.4,0.9,0.8,1.4,1c0.6,0.2,1.2,0.4,1.8,0.4c0.6,0,1.2-0.1,1.8-0.4c0.5-0.2,1-0.6,1.4-1c0.4-0.4,0.7-0.9,0.9-1.5&#10;&#9;&#9;c0.2-0.6,0.3-1.3,0.3-1.9c0-0.6-0.1-1.3-0.3-1.9c-0.2-0.6-0.5-1.1-0.9-1.5c-0.4-0.4-0.9-0.8-1.4-1c-0.6-0.3-1.2-0.4-1.8-0.4&#10;&#9;&#9;c-0.6,0-1.2,0.1-1.8,0.4c-0.5,0.2-1,0.6-1.4,1c-0.4,0.4-0.7,0.9-0.9,1.5C338.3,251.6,338.2,252.2,338.2,252.8z"/>
	<path class="st1_order-confirmed-94" d="M351.7,250.6h2.1v1.4l0,0c0.2-0.5,0.6-0.9,1-1.2c0.5-0.3,1-0.5,1.5-0.5h0.3c0.1,0,0.2,0,0.3,0v2&#10;&#9;&#9;c-0.1,0-0.3-0.1-0.4-0.1h-0.3c-0.4,0-0.8,0.1-1.2,0.3c-0.3,0.2-0.5,0.4-0.7,0.7c-0.2,0.2-0.3,0.5-0.4,0.8c-0.1,0.2-0.1,0.4-0.1,0.6&#10;&#9;&#9;v4.7h-2.2L351.7,250.6z"/>
	<path class="st1_order-confirmed-94" d="M366.9,259.3h-2.1V258l0,0c-0.3,0.5-0.7,0.9-1.3,1.2c-0.5,0.3-1.1,0.4-1.7,0.4c-0.6,0-1.2-0.1-1.8-0.4&#10;&#9;&#9;c-0.5-0.2-1-0.6-1.4-1c-0.4-0.4-0.7-0.9-0.9-1.5c-0.2-0.6-0.3-1.2-0.3-1.8c0-0.6,0.1-1.2,0.3-1.8c0.2-0.5,0.5-1,0.9-1.5&#10;&#9;&#9;c0.8-0.9,1.9-1.4,3.1-1.3c0.4,0,0.7,0,1.1,0.1c0.3,0.1,0.6,0.2,0.8,0.3c0.2,0.1,0.4,0.3,0.6,0.4c0.2,0.1,0.3,0.3,0.4,0.5h0v-6.1&#10;&#9;&#9;h2.2L366.9,259.3z M359.7,254.9c0,0.3,0.1,0.7,0.1,1c0.1,0.3,0.3,0.6,0.5,0.9c0.2,0.3,0.5,0.5,0.8,0.7c0.3,0.2,0.7,0.3,1.1,0.2&#10;&#9;&#9;c0.4,0,0.7-0.1,1.1-0.2c0.3-0.2,0.6-0.4,0.8-0.6c0.2-0.3,0.4-0.6,0.5-0.9c0.2-0.6,0.2-1.4,0-2c-0.2-0.7-0.7-1.2-1.3-1.6&#10;&#9;&#9;c-0.3-0.2-0.7-0.3-1.1-0.2c-0.7,0-1.5,0.3-1.9,0.9c-0.2,0.3-0.4,0.6-0.5,0.9C359.8,254.2,359.7,254.6,359.7,254.9z"/>
	<path class="st1_order-confirmed-94" d="M378,255v0.3c0,0.1,0,0.2,0,0.3h-6.6c0,0.3,0.1,0.6,0.2,0.9c0.1,0.3,0.3,0.5,0.6,0.7c0.2,0.2,0.5,0.3,0.8,0.5&#10;&#9;&#9;c0.3,0.1,0.6,0.2,0.9,0.2c0.5,0,1-0.1,1.4-0.3c0.4-0.2,0.7-0.5,0.9-0.8l1.5,1.2c-0.9,1.2-2.3,1.8-3.8,1.8c-0.6,0-1.3-0.1-1.9-0.3&#10;&#9;&#9;c-0.5-0.2-1-0.5-1.5-0.9c-0.4-0.4-0.8-0.9-1-1.4c-0.2-0.6-0.4-1.3-0.4-1.9c0-0.7,0.1-1.3,0.4-1.9c0.2-0.6,0.6-1.1,1-1.5&#10;&#9;&#9;c0.4-0.4,0.9-0.8,1.5-1c0.6-0.2,1.2-0.3,1.8-0.3c0.6,0,1.2,0.1,1.7,0.3c0.5,0.2,1,0.5,1.3,0.9c0.4,0.4,0.7,0.9,0.9,1.5&#10;&#9;&#9;C377.9,253.6,378,254.3,378,255z M375.8,254c0-0.3,0-0.5-0.1-0.8c-0.1-0.3-0.2-0.5-0.4-0.7c-0.2-0.2-0.4-0.4-0.6-0.5&#10;&#9;&#9;c-0.3-0.1-0.6-0.2-0.9-0.2c-0.6,0-1.2,0.2-1.7,0.6c-0.4,0.4-0.7,0.9-0.8,1.5H375.8z"/>
	<path class="st1_order-confirmed-94" d="M380.1,250.6h2.1v1.4l0,0c0.2-0.5,0.6-0.9,1-1.2c0.4-0.3,1-0.5,1.5-0.5h0.3c0.1,0,0.2,0,0.3,0v2&#10;&#9;&#9;c-0.1,0-0.3-0.1-0.4-0.1h-0.3c-0.4,0-0.8,0.1-1.2,0.3c-0.3,0.2-0.5,0.4-0.7,0.7c-0.2,0.2-0.3,0.5-0.4,0.8c-0.1,0.2-0.1,0.4-0.1,0.6&#10;&#9;&#9;v4.7H380L380.1,250.6z"/>
	<path class="st1_order-confirmed-94" d="M391,247.6c0-0.3,0.1-0.7,0.4-0.9c0.3-0.3,0.6-0.4,1-0.4c0.4,0,0.7,0.1,1,0.4c0.5,0.5,0.6,1.3,0.1,1.8&#10;&#9;&#9;c0,0,0,0-0.1,0.1c-0.3,0.2-0.6,0.4-1,0.4c-0.4,0-0.7-0.1-1-0.4C391.1,248.3,391,247.9,391,247.6z M391.3,250.6h2.2v8.8h-2.2V250.6z&#10;&#9;&#9;"/>
	<path class="st1_order-confirmed-94" d="M401,252.9c-0.2-0.3-0.5-0.5-0.8-0.7c-0.3-0.2-0.7-0.3-1.1-0.3c-0.3,0-0.7,0.1-1,0.2c-0.3,0.1-0.5,0.4-0.4,0.7&#10;&#9;&#9;c0,0.3,0.2,0.6,0.5,0.7c0.5,0.2,0.9,0.3,1.4,0.4c0.3,0.1,0.7,0.2,1,0.3c0.3,0.1,0.6,0.3,0.9,0.5c0.3,0.2,0.5,0.4,0.7,0.7&#10;&#9;&#9;c0.2,0.3,0.3,0.7,0.2,1.1c0,0.5-0.1,0.9-0.3,1.4c-0.2,0.4-0.5,0.7-0.8,0.9c-0.4,0.2-0.8,0.4-1.2,0.5c-0.5,0.1-0.9,0.2-1.4,0.2&#10;&#9;&#9;c-0.7,0-1.4-0.1-2-0.4c-0.6-0.2-1.2-0.6-1.6-1.1l1.4-1.4c0.3,0.3,0.6,0.6,1,0.8c0.4,0.2,0.8,0.3,1.3,0.3c0.2,0,0.3,0,0.5,0&#10;&#9;&#9;c0.2,0,0.3-0.1,0.5-0.2c0.1-0.1,0.3-0.2,0.3-0.3c0.1-0.1,0.1-0.3,0.1-0.5c0-0.3-0.2-0.7-0.5-0.8c-0.5-0.2-1-0.4-1.5-0.5&#10;&#9;&#9;c-0.3-0.1-0.6-0.2-1-0.3c-0.3-0.1-0.6-0.3-0.8-0.5c-0.2-0.2-0.4-0.4-0.6-0.7c-0.1-0.3-0.2-0.7-0.2-1c0-0.4,0.1-0.9,0.3-1.3&#10;&#9;&#9;c0.2-0.3,0.5-0.6,0.8-0.9c0.3-0.2,0.7-0.4,1.1-0.5c0.4-0.1,0.8-0.2,1.3-0.2c0.6,0,1.3,0.1,1.9,0.3c0.6,0.2,1.1,0.5,1.4,1L401,252.9&#10;&#9;&#9;z"/>
	<path class="st1_order-confirmed-94" d="M313.4,271.3c-0.3-0.4-0.8-0.8-1.3-1c-1.1-0.4-2.3-0.4-3.4,0c-0.5,0.2-1,0.6-1.4,1c-0.4,0.4-0.7,0.9-0.9,1.5&#10;&#9;&#9;c-0.2,0.6-0.3,1.2-0.3,1.9c0,0.7,0.1,1.3,0.3,1.9c0.2,0.6,0.5,1.1,0.9,1.5c0.4,0.4,0.8,0.8,1.4,1c0.6,0.2,1.2,0.4,1.8,0.3&#10;&#9;&#9;c0.6,0,1.3-0.1,1.8-0.4c0.5-0.2,1-0.6,1.3-1.1l1.8,1.3c-0.6,0.7-1.3,1.3-2.1,1.7c-0.9,0.4-1.9,0.6-2.9,0.6c-1,0-1.9-0.2-2.8-0.5&#10;&#9;&#9;c-1.6-0.6-3-1.9-3.6-3.6c-0.7-1.8-0.7-3.8,0-5.6c0.3-0.8,0.8-1.5,1.5-2.1c0.6-0.6,1.4-1,2.2-1.4c0.9-0.3,1.8-0.5,2.8-0.5&#10;&#9;&#9;c0.4,0,0.9,0,1.3,0.1c0.9,0.2,1.7,0.5,2.5,1c0.4,0.2,0.7,0.5,0.9,0.9L313.4,271.3z"/>
	<path class="st1_order-confirmed-94" d="M315.9,276.8c0-0.6,0.1-1.3,0.4-1.9c0.5-1.1,1.4-2,2.5-2.4c0.6-0.2,1.2-0.3,1.9-0.3c0.6,0,1.3,0.1,1.9,0.3&#10;&#9;&#9;c0.6,0.2,1.1,0.5,1.5,0.9c0.4,0.4,0.8,0.9,1,1.5c0.3,0.6,0.4,1.2,0.4,1.9c0,0.7-0.1,1.3-0.4,1.9c-0.2,0.6-0.6,1.1-1,1.5&#10;&#9;&#9;c-0.4,0.4-1,0.7-1.5,1c-0.6,0.2-1.2,0.4-1.9,0.4c-0.6,0-1.3-0.1-1.9-0.4c-0.6-0.2-1.1-0.5-1.5-1c-0.4-0.4-0.8-0.9-1-1.5&#10;&#9;&#9;C316.1,278.1,315.9,277.4,315.9,276.8z M318.2,276.8c0,0.3,0.1,0.7,0.2,1c0.1,0.3,0.2,0.6,0.5,0.9c0.2,0.3,0.5,0.5,0.8,0.7&#10;&#9;&#9;c0.3,0.2,0.7,0.3,1.1,0.3c0.7,0,1.5-0.3,1.9-0.9c0.2-0.3,0.4-0.6,0.5-0.9c0.1-0.3,0.1-0.7,0.1-1c0-0.3-0.1-0.7-0.1-1&#10;&#9;&#9;c-0.1-0.3-0.3-0.6-0.5-0.9c-0.2-0.3-0.5-0.5-0.8-0.6c-0.4-0.2-0.7-0.3-1.1-0.2c-0.4,0-0.8,0.1-1.1,0.2c-0.3,0.2-0.6,0.4-0.8,0.6&#10;&#9;&#9;c-0.2,0.3-0.4,0.6-0.5,0.9C318.2,276.1,318.2,276.5,318.2,276.8z"/>
	<path class="st1_order-confirmed-94" d="M327.6,272.5h2.1v1.4l0,0c0.2-0.5,0.6-0.9,1-1.2c0.5-0.3,1.1-0.5,1.7-0.5c0.5,0,1,0.1,1.5,0.3&#10;&#9;&#9;c0.4,0.2,0.7,0.5,1,0.8c0.3,0.3,0.5,0.7,0.6,1.1c0.1,0.4,0.2,0.9,0.2,1.3v5.5h-2.2v-4.9c0-0.3,0-0.5-0.1-0.8c0-0.3-0.1-0.5-0.2-0.8&#10;&#9;&#9;c-0.1-0.2-0.3-0.4-0.5-0.5c-0.3-0.2-0.6-0.2-0.9-0.2c-0.6,0-1.2,0.3-1.5,0.8c-0.2,0.2-0.3,0.5-0.4,0.8c-0.1,0.3-0.1,0.6-0.1,0.9&#10;&#9;&#9;v4.8h-2.2L327.6,272.5z"/>
	<path class="st1_order-confirmed-94" d="M338.5,274.2h-1.7v-1.8h1.7v-1.3c0-0.5,0.1-1,0.2-1.5c0.1-0.5,0.3-0.9,0.6-1.3c0.3-0.4,0.7-0.7,1.1-0.9&#10;&#9;&#9;c0.5-0.2,1.1-0.3,1.7-0.3c0.2,0,0.4,0,0.6,0c0.2,0,0.3,0.1,0.5,0.1l-0.1,1.9c-0.1,0-0.3-0.1-0.4-0.1c-0.1,0-0.3,0-0.5,0&#10;&#9;&#9;c-0.5,0-1,0.2-1.2,0.7c-0.1,0.2-0.2,0.4-0.2,0.6c0,0.2,0,0.4,0,0.7v1.4h2v1.8h-2v7h-2.2V274.2z M344.1,269.5c0-0.3,0.1-0.7,0.4-0.9&#10;&#9;&#9;c0.3-0.3,0.6-0.4,1-0.4c0.4,0,0.7,0.1,1,0.4c0.3,0.2,0.4,0.6,0.4,0.9c0,0.4-0.1,0.7-0.4,0.9c-0.3,0.2-0.6,0.4-1,0.4&#10;&#9;&#9;c-0.4,0-0.7-0.1-1-0.4C344.2,270.2,344.1,269.8,344.1,269.5z M344.4,272.5h2.2v8.8h-2.2V272.5z"/>
	<path class="st1_order-confirmed-94" d="M349,272.5h2.1v1.5l0,0c0.2-0.5,0.6-0.9,1-1.2c0.4-0.3,1-0.5,1.5-0.5h0.4c0.1,0,0.2,0,0.3,0v2&#10;&#9;&#9;c-0.1,0-0.3-0.1-0.4-0.1h-0.3c-0.4,0-0.8,0.1-1.2,0.3c-0.3,0.2-0.5,0.4-0.7,0.6c-0.2,0.2-0.3,0.5-0.4,0.8c-0.1,0.2-0.1,0.4-0.1,0.6&#10;&#9;&#9;v4.7H349V272.5z"/>
	<path class="st1_order-confirmed-94" d="M366.1,272.2c0.5,0,1,0.1,1.5,0.3c0.4,0.2,0.7,0.5,1,0.8c0.3,0.3,0.5,0.7,0.6,1.1c0.1,0.4,0.2,0.9,0.2,1.3v5.5&#10;&#9;&#9;h-2.2v-4.9c0-0.3,0-0.5-0.1-0.8c0-0.3-0.1-0.5-0.2-0.8c-0.1-0.2-0.3-0.4-0.5-0.5c-0.3-0.2-0.6-0.2-0.9-0.2c-0.3,0-0.6,0.1-0.9,0.2&#10;&#9;&#9;c-0.2,0.1-0.4,0.3-0.6,0.6c-0.2,0.2-0.3,0.5-0.4,0.8c-0.1,0.3-0.1,0.6-0.1,0.9v4.8h-2.2v-5.3c0-0.5-0.1-1-0.4-1.4&#10;&#9;&#9;c-0.3-0.4-0.8-0.6-1.2-0.5c-0.3,0-0.6,0.1-0.9,0.2c-0.2,0.1-0.4,0.3-0.6,0.5c-0.2,0.2-0.3,0.5-0.3,0.8c-0.1,0.3-0.1,0.6-0.1,0.9&#10;&#9;&#9;v4.8h-2.2v-8.8h2.1v1.4l0,0c0.1-0.2,0.2-0.4,0.4-0.6c0.2-0.2,0.4-0.4,0.6-0.5c0.2-0.2,0.5-0.3,0.8-0.4c0.3-0.1,0.7-0.1,1-0.1&#10;&#9;&#9;c0.6,0,1.2,0.1,1.7,0.5c0.4,0.3,0.8,0.7,1,1.2c0.3-0.5,0.7-0.9,1.2-1.2C364.9,272.3,365.5,272.2,366.1,272.2z"/>
	<path class="st1_order-confirmed-94" d="M380.2,276.9v0.3c0,0.1,0,0.2,0,0.3h-6.6c0,0.3,0.1,0.6,0.2,0.9c0.1,0.3,0.3,0.5,0.6,0.7&#10;&#9;&#9;c0.2,0.2,0.5,0.3,0.8,0.5c0.3,0.1,0.6,0.2,0.9,0.2c0.5,0,1-0.1,1.4-0.3c0.4-0.2,0.7-0.5,0.9-0.8l1.5,1.2c-0.9,1.2-2.3,1.8-3.8,1.8&#10;&#9;&#9;c-0.6,0-1.3-0.1-1.9-0.3c-0.5-0.2-1.1-0.5-1.5-0.9c-0.4-0.4-0.8-0.9-1-1.4c-0.5-1.2-0.5-2.6,0-3.9c0.2-0.6,0.6-1.1,1-1.5&#10;&#9;&#9;c0.4-0.4,0.9-0.8,1.5-1c0.6-0.2,1.2-0.3,1.8-0.3c0.6,0,1.2,0.1,1.7,0.3c0.5,0.2,1,0.5,1.3,0.9c0.4,0.4,0.7,0.9,0.9,1.5&#10;&#9;&#9;C380.2,275.5,380.3,276.2,380.2,276.9z M378.1,275.9c0-0.3,0-0.5-0.1-0.8c-0.1-0.3-0.2-0.5-0.4-0.7c-0.2-0.2-0.4-0.4-0.6-0.5&#10;&#9;&#9;c-0.3-0.1-0.6-0.2-0.9-0.2c-0.6,0-1.2,0.2-1.7,0.6c-0.4,0.4-0.7,0.9-0.8,1.5L378.1,275.9z"/>
	<path class="st1_order-confirmed-94" d="M391.3,281.2h-2.1v-1.3l0,0c-0.3,0.5-0.7,0.9-1.3,1.2c-0.5,0.3-1.1,0.4-1.7,0.4c-0.6,0-1.2-0.1-1.8-0.4&#10;&#9;&#9;c-0.5-0.2-1-0.6-1.4-1c-0.4-0.4-0.7-0.9-0.9-1.5c-0.2-0.6-0.3-1.2-0.3-1.8c0-0.6,0.1-1.2,0.3-1.8c0.2-0.5,0.5-1,0.9-1.5&#10;&#9;&#9;c0.8-0.9,1.9-1.3,3.1-1.3c0.4,0,0.7,0,1.1,0.1c0.3,0.1,0.6,0.2,0.8,0.3c0.2,0.1,0.4,0.3,0.6,0.4c0.2,0.1,0.3,0.3,0.4,0.5h0v-6.1&#10;&#9;&#9;h2.2L391.3,281.2z M384.1,276.8c0,0.3,0.1,0.7,0.1,1c0.1,0.3,0.3,0.6,0.5,0.9c0.2,0.3,0.5,0.5,0.8,0.7c0.7,0.3,1.5,0.3,2.2,0&#10;&#9;&#9;c0.3-0.2,0.6-0.4,0.8-0.6c0.2-0.3,0.4-0.6,0.5-0.9c0.1-0.3,0.2-0.7,0.2-1c0-0.3-0.1-0.7-0.2-1c-0.1-0.3-0.3-0.6-0.5-0.9&#10;&#9;&#9;c-0.2-0.3-0.5-0.5-0.8-0.6c-0.3-0.2-0.7-0.3-1.1-0.3c-0.7,0-1.4,0.3-1.9,0.9c-0.2,0.3-0.4,0.6-0.5,0.9&#10;&#9;&#9;C384.1,276.1,384.1,276.5,384.1,276.8L384.1,276.8z"/>
	<path class="st4_order-confirmed-94" d="M428.9,124.3c-0.4,0-0.7-0.3-0.7-0.7c0-0.2,0.1-0.3,0.2-0.5l9-9c0.3-0.3,0.7-0.3,1,0c0,0,0,0,0,0&#10;&#9;&#9;c0.3,0.3,0.3,0.7,0,1l-9,9C429.2,124.3,429.1,124.3,428.9,124.3z"/>
	<path class="st4_order-confirmed-94" d="M437.9,124.3c-0.2,0-0.4-0.1-0.5-0.2l-9-9c-0.3-0.3-0.3-0.7,0-1c0.3-0.3,0.7-0.3,1,0c0,0,0,0,0,0l9,9&#10;&#9;&#9;c0.3,0.3,0.3,0.7,0,1C438.2,124.2,438,124.3,437.9,124.3L437.9,124.3z"/>
	<path class="st2_order-confirmed-94 targetColor" d="M371.1,175.1c-0.2,0.4-0.5,0.8-0.8,1.1c-9.9,9.9-19.9,19.9-29.8,29.8c-1,1-1.8,1-2.8,0l-16.8-17.3&#10;&#9;&#9;c-0.7-0.6-0.8-1.6-0.3-2.3c0.1-0.1,0.3-0.3,0.4-0.4l4.2-3.8c0.6-0.7,1.6-0.8,2.3-0.2c0.1,0.1,0.2,0.2,0.2,0.3l9.9,10.1&#10;&#9;&#9;c1,1,1.8,1.1,2.8,0l23.2-23.1c1-1,1.8-1,2.8,0c1.3,1.3,2.6,2.6,3.9,4c0.3,0.3,0.6,0.7,0.8,1.1L371.1,175.1z" style="fill: rgb(104, 225, 253);"/>
	<path class="st4_order-confirmed-94" d="M302.8,184.9H289c-0.4,0-0.7-0.3-0.7-0.7c0-0.4,0.3-0.7,0.7-0.7h13.7c0.4,0,0.7,0.3,0.7,0.7&#10;&#9;&#9;S303.1,184.9,302.8,184.9C302.7,184.9,302.7,184.9,302.8,184.9L302.8,184.9z"/>
	<path class="st4_order-confirmed-94" d="M345.7,220.5c-20,0-36.3-16.2-36.3-36.3s16.2-36.3,36.3-36.3s36.3,16.2,36.3,36.3c0,0,0,0,0,0&#10;&#9;&#9;C381.9,204.2,365.7,220.5,345.7,220.5z M345.7,149.3c-19.3,0-34.9,15.6-34.9,34.9s15.6,34.9,34.9,34.9c19.3,0,34.9-15.6,34.9-34.9&#10;&#9;&#9;c0,0,0,0,0,0C380.5,165,364.9,149.4,345.7,149.3L345.7,149.3z"/>
	<path class="st4_order-confirmed-94" d="M304.4,163.8c-0.1,0-0.3,0-0.4-0.1L288.6,153c-0.3-0.2-0.5-0.6-0.3-1s0.6-0.5,1-0.3c0,0,0.1,0,0.1,0.1&#10;&#9;&#9;l15.4,10.6c0.3,0.2,0.4,0.7,0.2,1c0,0,0,0,0,0C304.8,163.7,304.6,163.8,304.4,163.8z"/>
	<path class="st4_order-confirmed-94" d="M289,216.7c-0.2,0-0.4-0.1-0.6-0.3c-0.2-0.3-0.2-0.8,0.2-1c0,0,0,0,0,0l15.4-10.6c0.3-0.2,0.7-0.2,1,0.1&#10;&#9;&#9;c0.2,0.3,0.2,0.7-0.1,1c0,0-0.1,0-0.1,0.1l-15.4,10.6C289.3,216.7,289.2,216.7,289,216.7z"/>
	<path class="st4_order-confirmed-94" d="M388.4,163.8c-0.4,0-0.7-0.3-0.7-0.7c0-0.2,0.1-0.5,0.3-0.6l15.4-10.6c0.3-0.2,0.7-0.2,1,0.1&#10;&#9;&#9;c0.2,0.3,0.2,0.7-0.1,1c0,0-0.1,0-0.1,0.1l-15.4,10.6C388.6,163.7,388.5,163.8,388.4,163.8z"/>
	<path class="st4_order-confirmed-94" d="M403.7,216.7c-0.1,0-0.3,0-0.4-0.1L388,205.9c-0.3-0.2-0.4-0.6-0.2-0.9c0,0,0,0,0-0.1c0.2-0.3,0.6-0.4,1-0.2&#10;&#9;&#9;c0,0,0,0,0,0l15.4,10.6c0.3,0.2,0.4,0.7,0.2,1c0,0,0,0,0,0C404.2,216.6,404,216.7,403.7,216.7z"/>
	<path class="st4_order-confirmed-94" d="M403.7,184.9H390c-0.4,0-0.7-0.3-0.7-0.7s0.3-0.7,0.7-0.7c0,0,0,0,0,0h13.7c0.4,0,0.7,0.3,0.7,0.7&#10;&#9;&#9;C404.4,184.6,404.1,184.9,403.7,184.9L403.7,184.9z"/>
</g>
</svg>